<?xml version="1.0" standalone="no"?>
<!DOCTYPE svg PUBLIC "-//W3C//DTD SVG 20010904//EN"
 "http://www.w3.org/TR/2001/REC-SVG-20010904/DTD/svg10.dtd">
<svg version="1.0" xmlns="http://www.w3.org/2000/svg"
 width="16.000000pt" height="16.000000pt" viewBox="0 0 16.000000 16.000000"
 preserveAspectRatio="xMidYMid meet">
<metadata>
Created by potrace 1.11, written by Peter Selinger 2001-2013
</metadata>
<g transform="translate(0.000000,16.000000) scale(0.000561,-0.000561)"
fill="#000000" stroke="none">
<path d="M11858 28525 c-1 -1 -32 -6 -68 -9 -55 -6 -169 -27 -267 -51 -73 -18
-245 -85 -348 -136 -391 -196 -706 -498 -949 -912 -70 -119 -186 -362 -186
-389 0 -8 -4 -18 -8 -23 -22 -26 -107 -305 -128 -425 -3 -14 -9 -41 -14 -60
-4 -19 -14 -69 -20 -110 -7 -41 -14 -83 -16 -94 -2 -10 -6 -51 -9 -90 -4 -39
-8 -89 -10 -111 -5 -46 -6 -375 -1 -420 2 -16 7 -66 10 -109 4 -43 9 -86 11
-95 1 -9 6 -41 11 -71 4 -30 8 -57 9 -60 1 -3 5 -25 9 -50 58 -323 208 -710
384 -995 17 -27 39 -63 48 -80 26 -45 236 -324 279 -370 21 -22 68 -71 103
-108 56 -58 63 -70 51 -81 -25 -23 -279 -181 -404 -251 -551 -309 -1113 -507
-2055 -724 -233 -53 -628 -143 -650 -147 -14 -3 -83 -19 -155 -35 -71 -17
-137 -32 -145 -34 -185 -41 -658 -172 -865 -241 -1018 -335 -1651 -759 -2317
-1553 -123 -146 -388 -534 -477 -696 -12 -22 -35 -62 -51 -90 -53 -89 -237
-466 -298 -610 -66 -155 -204 -532 -216 -590 -2 -5 -9 -30 -16 -55 -7 -25 -14
-50 -16 -56 -1 -6 -9 -36 -17 -65 -9 -30 -18 -65 -21 -79 -35 -168 -56 -275
-61 -320 -4 -30 -8 -57 -10 -60 -2 -3 -7 -48 -12 -100 -15 -172 -7 -577 12
-650 2 -8 7 -35 10 -60 17 -119 76 -328 134 -473 91 -226 220 -423 393 -598
232 -236 513 -391 803 -445 50 -9 99 -18 110 -20 24 -5 260 -5 295 0 14 2 45
7 70 11 182 26 387 112 542 227 249 185 417 466 489 823 31 155 41 381 26 590
-3 50 -8 97 -11 105 -2 8 -7 48 -11 89 -3 41 -10 94 -14 118 -10 49 -6 53 35
48 76 -11 312 -28 392 -30 35 0 37 -5 22 -70 -12 -54 -15 -72 -50 -270 -26
-155 -33 -198 -45 -282 -2 -15 -6 -41 -8 -58 -3 -16 -8 -52 -12 -80 -3 -27 -8
-63 -10 -80 -2 -16 -9 -75 -15 -130 -6 -55 -12 -118 -15 -140 -2 -22 -7 -71
-10 -110 -4 -38 -8 -90 -11 -115 -2 -25 -6 -90 -9 -145 -3 -55 -8 -134 -10
-175 -12 -202 -15 -478 -5 -558 17 -135 26 -197 35 -252 3 -14 7 -38 10 -55 3
-16 14 -70 24 -120 11 -49 16 -93 13 -96 -4 -3 -36 -18 -72 -34 -289 -124
-604 -316 -885 -538 -375 -296 -763 -726 -1050 -1162 -187 -286 -261 -412
-402 -690 -227 -448 -324 -727 -378 -1090 -14 -90 -13 -391 1 -480 50 -321
165 -570 358 -773 61 -64 194 -170 266 -211 137 -78 331 -150 475 -176 98 -18
123 -21 158 -24 15 -1 17 -7 12 -43 -3 -24 -8 -50 -10 -58 -2 -8 -7 -35 -10
-60 -3 -25 -10 -70 -15 -100 -5 -30 -12 -79 -15 -109 -4 -30 -8 -61 -10 -70
-1 -9 -6 -45 -10 -81 -4 -36 -8 -72 -10 -80 -1 -8 -6 -46 -10 -85 -4 -38 -8
-77 -10 -85 -2 -8 -6 -61 -10 -118 -4 -57 -8 -115 -10 -130 -22 -165 -22 -709
-1 -842 3 -14 7 -47 10 -75 10 -86 16 -128 27 -190 18 -105 66 -297 100 -400
18 -55 33 -102 34 -105 1 -3 6 -16 12 -30 6 -14 21 -50 33 -80 135 -341 397
-685 695 -911 148 -113 347 -223 527 -294 116 -45 340 -107 428 -119 25 -3 56
-8 70 -11 57 -11 193 -19 325 -19 134 0 320 10 334 18 3 2 29 7 56 11 132 17
389 93 545 161 303 131 590 330 830 574 110 112 112 113 200 225 246 309 427
695 531 1130 l10 41 189 2 c204 2 335 7 720 27 300 16 451 20 755 20 313 0
405 -3 565 -20 562 -57 1026 -228 1373 -504 113 -90 254 -236 330 -343 69 -98
153 -246 144 -255 -3 -2 -32 4 -64 15 -249 86 -583 165 -793 188 -25 3 -63 7
-85 10 -73 9 -459 12 -535 4 -117 -12 -184 -21 -200 -25 -8 -2 -35 -7 -60 -10
-111 -15 -331 -80 -474 -139 -264 -110 -467 -245 -662 -440 -96 -96 -254 -290
-254 -312 0 -4 -6 -15 -14 -23 -29 -32 -125 -239 -165 -355 -37 -106 -75 -257
-86 -341 -14 -100 -17 -130 -24 -219 -9 -141 -3 -370 14 -457 2 -12 7 -41 9
-65 3 -24 13 -75 21 -112 9 -37 17 -79 19 -93 3 -24 10 -50 58 -209 81 -273
268 -673 434 -933 24 -37 44 -69 44 -71 0 -6 132 -199 188 -276 375 -510 783
-814 1232 -919 116 -28 194 -36 335 -35 136 0 184 6 304 35 88 22 245 83 272
106 8 7 19 13 23 13 18 0 163 109 224 169 151 147 275 383 317 600 2 13 6 30
9 39 5 18 16 81 21 122 13 107 16 143 20 200 6 92 6 345 0 410 -20 220 -22
230 -45 357 -21 110 -51 226 -80 313 -47 140 -65 184 -126 308 l-64 132 48 64
c57 74 149 212 183 275 170 313 249 550 285 859 14 115 5 426 -13 455 -16 26
111 -30 432 -190 519 -260 808 -440 1103 -688 l84 -70 -34 -29 c-148 -130
-211 -189 -338 -316 -165 -165 -201 -205 -286 -310 -233 -291 -380 -576 -463
-897 -16 -65 -32 -131 -35 -148 -3 -16 -7 -41 -10 -54 -3 -14 -8 -45 -11 -70
-3 -25 -8 -57 -11 -71 -10 -41 -13 -480 -4 -555 18 -144 21 -169 39 -269 24
-134 108 -419 156 -531 7 -16 25 -59 40 -95 106 -257 297 -570 510 -840 120
-151 160 -195 345 -380 356 -357 664 -578 1030 -738 109 -48 330 -116 445
-136 17 -3 41 -8 55 -11 90 -19 394 -26 510 -12 232 28 441 101 635 220 339
209 606 542 753 942 41 110 80 237 89 285 2 14 10 52 18 85 7 33 16 85 20 115
4 30 8 57 10 60 15 26 23 447 11 610 -6 88 -9 118 -20 195 -2 17 -7 53 -11 80
-17 137 -82 432 -143 650 -103 366 -246 716 -384 938 -26 43 -48 80 -48 82 0
9 -127 175 -184 240 -167 192 -392 363 -586 445 -30 12 -69 29 -85 36 -37 16
-211 61 -263 69 -85 13 -282 13 -369 0 -160 -23 -357 -98 -492 -189 -30 -20
-57 -35 -61 -34 -4 2 -60 71 -125 153 -121 154 -236 290 -344 405 -34 36 -60
68 -58 72 1 3 66 62 144 131 484 425 730 712 908 1059 53 103 123 264 130 297
2 9 11 36 20 61 9 25 18 53 20 64 3 10 11 42 19 70 8 28 17 62 20 76 3 14 10
50 15 80 6 30 13 66 16 80 3 14 8 45 11 70 3 25 8 54 10 65 2 11 6 63 10 115
7 123 6 121 51 115 21 -3 65 -7 98 -11 33 -3 71 -8 85 -10 111 -18 755 -26
935 -11 44 4 114 9 155 12 41 3 91 7 110 10 19 2 62 7 95 10 56 5 88 9 190 21
62 7 197 25 226 30 15 2 47 6 70 9 24 3 55 7 69 10 14 2 44 7 67 10 23 3 55 8
70 10 15 2 62 9 103 16 129 20 117 26 178 -81 810 -1412 1602 -2275 2652
-2887 151 -89 377 -206 493 -257 l58 -25 47 98 47 99 65 -23 c36 -13 103 -37
150 -54 193 -69 441 -130 630 -156 139 -19 373 -25 531 -12 316 24 712 177
924 357 75 64 172 161 220 220 52 65 135 191 135 205 0 4 8 19 18 33 67 98
154 383 179 584 10 83 10 373 0 468 -48 443 -257 995 -531 1405 -41 62 -196
276 -206 285 -3 3 -18 21 -34 40 -155 190 -401 428 -611 590 -38 30 -72 57
-75 61 -27 32 -448 306 -625 406 -188 107 -226 127 -450 237 -236 117 -310
152 -499 238 -60 27 -142 65 -183 84 -41 19 -76 34 -78 34 -2 0 -41 17 -87 38
-46 21 -170 78 -275 127 l-193 88 -1 56 c0 31 -2 63 -3 71 -2 8 -6 56 -10 105
-4 50 -8 101 -10 115 -2 14 -6 52 -10 85 -15 124 -17 142 -32 230 -70 422
-206 835 -392 1185 -146 276 -274 455 -456 635 -200 199 -387 309 -631 372
-174 44 -398 36 -551 -22 -199 -75 -351 -202 -439 -368 -71 -133 -96 -249 -90
-422 6 -174 31 -270 117 -442 95 -191 286 -412 521 -603 242 -197 607 -456
862 -609 66 -40 129 -78 140 -84 54 -33 96 -57 155 -90 36 -19 94 -51 130 -71
66 -37 486 -250 507 -257 8 -3 14 -53 18 -144 3 -77 7 -174 10 -215 2 -41 6
-129 10 -195 5 -121 12 -222 20 -305 2 -25 7 -74 10 -110 4 -36 8 -76 10 -90
2 -14 6 -45 10 -70 24 -192 53 -349 81 -444 8 -27 14 -54 14 -60 0 -8 -79 -11
-247 -11 -226 0 -492 -10 -568 -20 -16 -2 -66 -6 -110 -10 -133 -11 -238 -22
-295 -30 -39 -6 -97 -13 -195 -26 -134 -17 -133 -17 -235 -34 -120 -20 -107
-27 -167 85 -22 41 -57 104 -76 140 -69 125 -300 580 -607 1195 -423 848 -558
1104 -793 1510 -338 585 -614 963 -947 1295 -88 87 -254 234 -325 286 -22 16
-46 35 -53 42 -7 6 -17 12 -20 12 -4 0 -18 10 -32 23 -33 29 -171 117 -295
186 -107 61 -124 69 -285 143 -101 46 -104 48 -65 49 22 1 51 3 65 4 95 8 317
22 475 30 257 13 308 15 460 20 88 3 214 8 280 10 128 5 363 12 670 20 105 3
260 8 345 10 85 3 220 7 300 10 427 13 702 26 910 40 36 3 108 7 160 10 52 3
115 7 140 10 25 2 81 7 125 10 44 3 101 7 125 9 128 12 183 18 198 21 9 1 51
6 93 9 42 4 87 8 100 11 13 2 51 6 84 10 32 4 66 8 75 10 8 1 42 6 75 9 33 4
71 9 85 11 14 2 45 7 70 10 25 3 110 17 190 30 80 13 161 26 180 29 92 15 293
55 405 81 55 13 111 26 125 29 148 31 474 138 672 221 238 100 441 214 623
349 151 112 283 234 385 356 30 36 57 67 60 70 11 10 85 115 122 172 93 144
206 401 232 529 51 248 58 340 43 540 -38 518 -371 981 -882 1228 -114 55
-163 76 -222 95 -29 10 -53 19 -53 20 0 3 64 153 89 211 10 22 46 108 80 190
35 83 67 159 72 170 5 11 29 69 53 130 l44 110 98 28 c112 32 378 119 427 140
17 8 84 36 147 62 465 194 749 411 897 685 52 97 94 248 96 347 3 169 -40 308
-134 429 -108 141 -262 216 -444 218 -80 1 -105 -2 -180 -18 -46 -10 -165 -65
-220 -102 -112 -74 -240 -211 -314 -334 -70 -119 -139 -281 -254 -600 -47
-129 -117 -318 -157 -420 -39 -102 -79 -204 -88 -228 -16 -42 -23 -47 -72 -56
-14 -2 -46 -9 -73 -15 -26 -6 -64 -14 -85 -17 -20 -3 -44 -7 -52 -9 -8 -3 -33
-7 -55 -10 -22 -3 -65 -10 -95 -15 -76 -12 -115 -18 -185 -25 -33 -4 -71 -8
-85 -11 -14 -2 -61 -6 -105 -10 -44 -4 -91 -8 -105 -10 -184 -23 -969 -23
-1255 1 -27 2 -88 6 -135 10 -47 3 -107 8 -135 10 -27 2 -86 7 -130 10 -147
11 -276 23 -450 41 -97 9 -197 19 -300 29 -33 3 -77 8 -97 10 -70 9 -113 14
-173 20 -33 4 -73 8 -90 10 -16 2 -49 7 -72 10 -24 3 -62 7 -85 10 -24 3 -54
7 -68 10 -14 3 -38 7 -55 9 -170 25 -426 76 -492 97 -17 5 -42 12 -56 14 -134
25 -446 141 -642 240 -133 67 -326 181 -345 205 -3 3 -23 19 -45 36 -67 49
-106 84 -201 180 -196 198 -327 409 -408 654 -39 122 -44 145 -65 315 -12 101
-4 312 15 410 2 11 7 36 10 55 34 201 154 491 286 691 219 331 522 618 903
854 61 37 121 75 135 84 86 55 482 252 655 325 61 26 124 53 140 61 45 20 299
123 342 139 21 7 146 55 277 105 444 169 718 247 1046 296 196 29 508 26 675
-6 96 -19 105 -21 165 -38 429 -119 759 -408 890 -777 15 -44 31 -96 34 -115
32 -182 27 -340 -16 -514 -91 -366 -340 -693 -739 -968 -53 -37 -102 -67 -109
-67 -7 0 -83 40 -169 89 -86 48 -187 105 -226 126 -38 21 -109 60 -156 86
-118 65 -335 169 -444 214 -49 20 -99 40 -110 45 -71 34 -415 133 -502 145
-16 2 -44 6 -63 10 -215 40 -489 37 -695 -6 -73 -16 -220 -66 -279 -96 -134
-67 -304 -215 -352 -306 -88 -168 -112 -257 -107 -389 10 -269 200 -520 488
-646 68 -29 200 -66 280 -78 67 -9 297 -11 370 -3 39 5 88 10 110 13 84 10
369 69 485 101 73 19 209 53 240 58 48 9 276 78 425 129 206 70 391 148 574
240 l154 78 81 -44 c283 -154 527 -263 757 -339 304 -101 590 -138 874 -114
193 16 395 77 558 169 372 211 586 572 564 956 -23 396 -301 698 -650 707
-243 5 -451 -133 -542 -360 -47 -117 -52 -241 -15 -365 54 -180 195 -320 377
-375 53 -16 57 -13 68 43 8 41 5 43 -60 67 -178 65 -306 260 -291 445 10 124
67 242 153 314 30 25 163 100 163 92 0 -3 15 0 33 5 36 11 136 13 182 4 256
-49 451 -312 453 -611 3 -415 -315 -791 -769 -909 -72 -19 -75 -20 -142 -29
-27 -4 -59 -10 -70 -12 -12 -3 -89 -5 -172 -6 -163 -1 -242 9 -476 57 -54 11
-244 75 -364 122 -117 46 -221 95 -542 257 -13 6 -23 13 -23 16 0 3 24 21 53
40 242 163 483 412 619 640 95 160 171 358 194 510 2 14 8 52 13 85 9 61 7
286 -3 340 -25 129 -59 239 -104 334 -27 59 -29 61 -108 180 -58 87 -202 238
-294 309 -180 139 -437 253 -675 301 -254 50 -451 57 -759 26 -70 -8 -269 -46
-391 -75 -410 -99 -1256 -419 -1798 -682 -977 -473 -1564 -1086 -1756 -1833
-46 -180 -56 -260 -56 -460 0 -224 16 -338 71 -510 204 -639 762 -1134 1574
-1394 176 -56 506 -135 660 -156 25 -3 81 -12 125 -20 44 -7 107 -17 140 -20
33 -4 67 -9 76 -10 15 -3 68 -9 174 -21 129 -14 215 -24 255 -29 14 -2 60 -6
102 -10 43 -3 91 -8 107 -10 15 -2 57 -6 92 -10 100 -9 150 -14 204 -20 28 -3
82 -7 120 -10 39 -3 101 -8 139 -11 95 -7 156 -12 256 -19 47 -4 101 -8 120
-10 258 -25 1005 -25 1300 0 44 3 162 15 215 20 22 2 65 7 95 10 30 3 62 8 70
10 8 2 35 7 60 10 25 3 56 8 70 10 14 2 41 6 60 9 19 3 68 12 108 21 94 19 92
20 83 -12 -8 -28 -70 -182 -96 -238 -7 -16 -52 -122 -100 -235 -48 -113 -87
-206 -88 -207 -1 -1 -31 5 -67 12 -226 47 -619 52 -885 10 -49 -8 -106 -17
-125 -19 -287 -38 -981 -247 -1365 -411 -355 -151 -632 -330 -846 -544 -115
-116 -159 -169 -233 -284 -103 -157 -172 -328 -212 -521 -21 -105 -21 -326 0
-426 3 -14 8 -38 12 -55 48 -247 227 -504 462 -663 79 -55 234 -133 292 -148
8 -2 47 -13 85 -24 179 -51 446 -62 642 -26 576 104 1100 487 1507 1101 89
134 144 223 159 255 4 8 17 31 28 50 94 153 292 585 548 1195 4 11 17 40 28
65 12 25 34 78 49 117 16 41 35 73 43 73 43 0 305 -115 387 -170 25 -16 47
-30 49 -30 3 0 41 -27 85 -61 155 -119 305 -299 389 -467 35 -70 89 -226 97
-282 3 -19 7 -40 9 -47 8 -24 18 -160 18 -238 0 -153 -28 -314 -80 -465 -28
-83 -152 -340 -163 -340 -4 0 -12 -12 -19 -27 -7 -15 -42 -65 -79 -112 -341
-440 -833 -732 -1567 -930 -82 -22 -161 -43 -175 -46 -14 -2 -124 -25 -245
-49 -121 -25 -240 -48 -265 -50 -44 -6 -70 -10 -140 -22 -19 -4 -44 -8 -55 -9
-11 -2 -33 -6 -50 -8 -16 -3 -55 -9 -85 -12 -30 -3 -66 -8 -80 -10 -14 -2 -47
-6 -75 -10 -27 -3 -61 -8 -75 -10 -43 -6 -113 -15 -170 -20 -101 -10 -155 -15
-200 -20 -51 -6 -118 -11 -235 -20 -44 -3 -96 -8 -115 -10 -19 -2 -84 -7 -145
-11 -60 -3 -132 -8 -160 -9 -27 -2 -104 -7 -170 -10 -66 -3 -154 -8 -195 -10
-130 -8 -736 -28 -1180 -40 -361 -10 -556 -16 -665 -20 -60 -2 -180 -7 -265
-10 -184 -6 -363 -14 -480 -20 -203 -11 -278 -16 -320 -20 -25 -2 -90 -7 -145
-10 -55 -3 -120 -8 -145 -10 -25 -3 -74 -7 -110 -10 -36 -3 -85 -7 -110 -10
-25 -3 -70 -7 -100 -10 -30 -3 -75 -7 -100 -10 -25 -3 -58 -1 -75 3 l-30 8 25
16 c14 8 57 33 95 55 425 246 963 618 1300 901 51 43 150 127 155 132 3 3 46
41 95 85 128 113 407 386 475 465 12 14 40 45 63 70 382 414 757 972 901 1340
80 207 111 361 111 560 0 193 -27 325 -100 485 -135 294 -410 513 -735 585
-30 7 -68 16 -85 20 -65 15 -254 18 -370 7 -318 -31 -649 -180 -1025 -460
-143 -107 -393 -310 -506 -412 -6 -5 -37 -32 -69 -60 -153 -132 -495 -469
-650 -640 -49 -55 -97 -106 -106 -115 -9 -8 -42 -46 -75 -85 -32 -38 -61 -72
-64 -75 -3 -3 -31 -36 -63 -73 -31 -38 -57 -63 -57 -58 0 6 22 77 49 158 291
887 591 1889 707 2358 1 6 16 68 34 139 39 157 30 120 86 366 25 113 48 216
50 230 3 14 11 57 19 95 8 39 17 84 20 100 12 69 46 265 49 282 2 10 9 54 16
98 7 44 14 89 16 100 2 11 6 40 9 65 3 25 12 90 20 145 8 55 17 136 21 179 3
44 7 87 9 96 3 16 16 159 20 230 27 407 27 844 0 1180 -15 198 -24 274 -40
365 -3 17 -8 40 -10 53 -11 63 -61 216 -95 289 -180 388 -555 595 -923 509
-253 -59 -462 -249 -599 -547 -77 -165 -191 -568 -304 -1069 -5 -19 -11 -5
-28 60 -63 239 -204 457 -426 663 -160 148 -332 262 -607 403 -92 47 -169 87
-171 89 -13 13 336 1034 378 1107 6 10 10 22 10 28 0 9 277 734 424 1107 341
871 629 1364 1032 1769 348 350 801 583 1229 631 93 11 353 8 425 -5 36 -6 83
-14 105 -17 47 -7 122 -27 225 -62 432 -144 794 -464 995 -878 49 -100 108
-252 119 -308 3 -12 12 -53 20 -92 26 -121 34 -205 34 -360 0 -351 -94 -667
-282 -949 -61 -90 -71 -103 -155 -200 -129 -149 -330 -305 -506 -393 -39 -20
-144 -53 -215 -69 -19 -4 -39 -9 -45 -10 -92 -20 -180 -28 -315 -28 -173 -1
-258 10 -410 50 -787 211 -1280 965 -1078 1649 120 407 486 692 875 680 177
-5 293 -40 423 -126 375 -249 432 -758 120 -1059 -155 -149 -349 -207 -586
-175 l-41 5 -10 -45 c-6 -25 -6 -48 -2 -51 16 -10 54 -15 141 -21 380 -25 710
227 799 607 7 30 13 105 13 165 -2 401 -298 736 -717 809 -77 13 -252 14 -317
2 -431 -83 -755 -421 -851 -886 -20 -99 -20 -323 1 -440 121 -672 722 -1204
1456 -1289 81 -9 351 -7 414 4 311 52 463 117 695 294 178 137 354 333 466
521 45 76 129 241 129 255 0 4 6 21 14 38 47 107 97 316 113 467 9 85 9 330 0
400 -15 127 -19 150 -43 245 -113 452 -390 849 -773 1108 -133 89 -419 222
-522 242 -12 3 -45 11 -73 19 -28 8 -71 17 -96 21 -25 3 -58 8 -75 12 -62 12
-84 14 -245 17 -91 2 -199 0 -240 -5 -680 -83 -1294 -509 -1763 -1224 -221
-337 -397 -698 -634 -1300 -108 -273 -296 -758 -343 -885 -17 -47 -38 -101
-45 -120 -30 -72 -204 -549 -240 -655 -20 -60 -41 -119 -45 -130 -9 -20 -130
-402 -130 -410 0 -2 -35 12 -77 30 -43 17 -220 87 -393 154 -736 286 -1004
421 -1308 658 l-83 65 78 61 c75 58 225 184 308 257 63 56 305 299 365 368 30
35 62 71 71 80 101 109 293 374 453 626 7 11 52 32 114 52 321 105 592 324
798 644 138 216 258 534 305 810 10 57 13 79 28 190 9 63 7 420 -2 470 -2 14
-7 45 -12 70 -106 641 -610 1116 -1299 1226 -36 5 -372 14 -378 9z m303 -169
c44 -4 86 -9 92 -11 7 -2 28 -6 47 -9 59 -9 211 -56 290 -90 319 -138 579
-399 704 -706 26 -62 67 -215 80 -290 48 -299 2 -711 -116 -1024 -17 -45 -36
-97 -43 -116 -53 -142 -199 -373 -313 -494 -52 -55 -151 -145 -182 -164 -14
-9 -27 -19 -30 -22 -28 -29 -239 -144 -249 -135 -2 3 10 37 27 77 97 233 132
400 126 608 -3 124 -8 157 -41 269 -87 300 -317 516 -608 570 -53 10 -240 8
-290 -3 -240 -54 -461 -236 -561 -462 -54 -122 -69 -198 -69 -354 1 -120 4
-159 23 -225 68 -239 206 -428 409 -558 61 -40 97 -58 198 -102 85 -37 258
-68 383 -69 28 0 52 -2 52 -4 0 -9 -99 -153 -178 -259 -257 -344 -553 -644
-916 -927 l-99 -77 -61 63 c-81 83 -190 208 -247 283 -51 67 -179 254 -179
261 0 2 -11 21 -23 42 -161 256 -320 702 -362 1017 -26 193 -32 302 -30 500 2
121 5 236 9 255 3 19 8 58 11 85 5 43 11 82 31 195 9 51 64 257 87 330 181
559 521 1015 960 1287 235 145 506 238 757 258 47 4 86 8 87 9 4 4 145 -2 224
-8z m-211 -1710 c54 -13 137 -51 185 -85 182 -127 287 -342 289 -591 2 -222
-41 -389 -166 -638 -58 -116 -53 -113 -185 -116 -355 -8 -659 165 -807 461
-100 199 -100 457 0 643 34 63 66 104 129 165 127 123 258 175 430 170 55 -1
111 -5 125 -9z m-972 -3146 c310 -253 696 -449 1417 -719 61 -23 118 -46 127
-51 10 -6 22 -10 28 -10 6 0 29 -9 53 -19 23 -11 73 -31 112 -46 128 -50 135
-55 124 -83 -18 -47 -99 -372 -129 -519 -34 -163 -35 -173 -45 -253 -4 -30 -9
-68 -12 -85 -10 -63 -9 -314 3 -405 35 -272 135 -492 299 -655 153 -154 324
-232 525 -240 246 -11 489 110 626 312 l25 38 -5 -45 c-3 -25 -8 -54 -10 -65
-2 -11 -7 -40 -10 -65 -3 -25 -8 -56 -10 -70 -5 -25 -11 -74 -21 -160 -3 -25
-10 -81 -16 -125 -5 -44 -12 -98 -15 -120 -2 -22 -6 -56 -9 -75 -5 -36 -11
-92 -20 -190 -3 -30 -8 -71 -10 -90 -2 -19 -6 -62 -9 -95 -6 -60 -13 -136 -20
-210 -3 -22 -7 -76 -11 -120 -3 -44 -8 -96 -10 -115 -2 -19 -6 -73 -10 -120
-3 -47 -8 -96 -10 -110 -2 -14 -6 -65 -10 -115 -3 -49 -8 -101 -10 -115 -3
-23 -14 -149 -20 -249 -2 -23 -6 -71 -9 -105 -3 -33 -8 -97 -11 -141 -3 -44
-8 -96 -10 -115 -2 -19 -7 -75 -11 -125 -3 -49 -7 -106 -9 -126 -2 -19 -6 -76
-10 -125 -3 -49 -8 -105 -10 -124 -2 -19 -7 -73 -10 -120 -4 -47 -8 -98 -10
-115 -2 -16 -6 -73 -10 -125 -4 -52 -9 -111 -10 -130 -2 -19 -6 -73 -10 -120
-3 -47 -8 -105 -10 -130 -3 -25 -7 -74 -10 -110 -6 -79 -15 -190 -20 -250 -3
-25 -7 -81 -10 -125 -3 -44 -7 -100 -9 -125 -7 -68 -18 -200 -21 -240 -4 -56
-16 -212 -20 -250 -2 -19 -6 -75 -10 -125 -3 -49 -8 -106 -10 -125 -1 -19 -6
-73 -10 -120 -4 -47 -8 -101 -10 -120 -2 -19 -6 -80 -10 -135 -3 -55 -8 -111
-10 -125 -2 -14 -7 -63 -10 -110 -4 -47 -8 -101 -10 -120 -2 -19 -6 -78 -10
-130 -3 -52 -8 -111 -10 -130 -3 -19 -7 -69 -10 -110 -3 -41 -7 -95 -10 -120
-2 -25 -7 -79 -10 -120 -12 -170 -15 -208 -20 -260 -2 -30 -7 -91 -10 -135 -4
-44 -8 -100 -10 -125 -3 -25 -7 -81 -10 -125 -3 -44 -8 -100 -10 -125 -2 -25
-7 -79 -10 -120 -12 -167 -19 -197 -72 -344 -86 -238 -319 -929 -338 -1006 -2
-8 -39 -130 -83 -270 -105 -335 -197 -654 -307 -1060 -192 -715 -297 -964
-514 -1224 -124 -148 -308 -270 -471 -312 -147 -38 -355 -14 -516 60 -133 62
-195 107 -320 232 -233 234 -411 623 -499 1089 -3 17 -7 41 -10 55 -11 57 -24
138 -30 180 -3 25 -10 72 -15 105 -5 33 -12 78 -15 100 -3 23 -7 50 -9 60 -2
11 -7 49 -11 85 -7 65 -11 100 -19 163 -2 17 -7 57 -11 87 -3 30 -10 89 -15
130 -13 106 -18 156 -25 225 -3 33 -8 78 -10 100 -2 22 -7 72 -10 110 -3 39
-8 88 -10 110 -4 37 -9 89 -20 210 -6 60 -13 152 -20 255 -8 125 -16 232 -20
285 -10 130 -18 277 -30 560 -3 72 -7 175 -10 230 -2 55 -7 215 -10 355 l-6
255 66 190 c37 105 80 228 96 275 17 47 36 103 44 125 7 22 45 132 85 245 39
113 107 306 150 430 43 124 87 252 99 285 12 33 24 67 26 75 2 8 13 40 23 70
41 113 263 756 267 770 2 8 22 69 45 135 22 66 62 183 87 260 25 77 60 185 78
240 43 132 119 367 138 430 64 207 110 360 112 374 2 9 4 16 5 16 1 0 3 8 5
17 2 10 17 64 33 120 40 135 122 446 166 628 49 201 85 357 91 389 5 29 6 33
30 146 22 106 64 331 71 375 3 19 7 46 10 60 8 44 11 64 18 113 4 27 9 56 10
65 2 10 7 39 10 65 4 27 9 56 11 65 1 10 6 44 9 77 3 33 9 76 12 95 2 19 6 51
8 70 2 19 7 60 10 90 12 107 19 180 32 345 24 316 24 1052 -1 1259 -2 17 -6
56 -9 86 -33 304 -134 552 -293 715 -166 171 -349 249 -573 248 -197 -2 -388
-91 -537 -252 -114 -123 -200 -297 -257 -522 -19 -73 -104 -478 -142 -674 -6
-32 -34 -168 -40 -195 -3 -14 -7 -36 -10 -50 -2 -14 -9 -47 -14 -75 -18 -90
-20 -100 -26 -145 -3 -25 -8 -48 -10 -51 -2 -3 -6 -21 -9 -40 -3 -19 -17 -95
-31 -169 -14 -74 -40 -225 -59 -335 -18 -110 -36 -213 -39 -230 -3 -16 -8 -46
-11 -65 -3 -19 -10 -57 -15 -85 -5 -27 -16 -99 -25 -160 -9 -60 -25 -162 -35
-225 -11 -63 -22 -135 -25 -160 -3 -25 -10 -72 -15 -105 -5 -33 -16 -112 -25
-175 -9 -63 -18 -131 -21 -150 -2 -19 -7 -53 -10 -75 -2 -22 -6 -51 -9 -65 -6
-42 -14 -103 -19 -145 -3 -22 -8 -58 -10 -80 -7 -48 -25 -204 -31 -260 -3 -22
-7 -56 -10 -75 -8 -61 -14 -113 -20 -170 -3 -30 -12 -116 -20 -190 -8 -74 -17
-157 -20 -185 -2 -27 -7 -77 -11 -110 -10 -98 -12 -116 -19 -200 -4 -44 -8
-93 -10 -110 -1 -16 -5 -64 -9 -105 -4 -41 -9 -95 -11 -120 -3 -25 -7 -78 -10
-117 -3 -40 -7 -103 -10 -140 -3 -38 -7 -95 -9 -128 -3 -33 -7 -105 -11 -160
-3 -55 -7 -120 -10 -145 -4 -47 -11 -166 -21 -385 -3 -71 -7 -159 -9 -195 -5
-76 -15 -328 -21 -520 -2 -74 -6 -405 -9 -736 l-5 -601 -56 -159 c-95 -270
-178 -506 -289 -824 -59 -168 -136 -388 -172 -490 -114 -324 -170 -500 -223
-700 -29 -107 -75 -269 -102 -360 -27 -91 -60 -203 -74 -250 -31 -105 -206
-637 -234 -714 -23 -59 -25 -60 -88 -40 -59 18 -289 25 -387 12 -361 -48 -656
-259 -820 -587 -42 -83 -78 -184 -94 -263 -6 -29 -14 -64 -17 -78 -10 -47 -12
-275 -3 -345 14 -107 16 -115 34 -185 63 -244 201 -481 401 -689 l51 -54 -38
-68 c-151 -266 -314 -433 -498 -510 -101 -42 -199 -54 -301 -35 -55 10 -171
71 -213 113 -106 103 -149 213 -148 374 l1 86 -37 6 c-37 6 -128 22 -168 30
-22 5 -71 13 -125 22 -19 3 -42 8 -50 10 -8 2 -31 7 -50 10 -19 3 -59 10 -89
16 -35 7 -56 8 -63 1 -17 -17 -35 -171 -31 -274 8 -268 115 -518 303 -709 172
-174 350 -269 595 -315 83 -16 248 -21 325 -9 311 47 618 219 835 471 33 38
62 71 65 74 32 32 143 195 216 317 l19 32 77 -33 c105 -46 284 -105 428 -141
38 -9 218 -46 245 -50 224 -31 244 -34 355 -41 52 -4 102 -8 110 -10 8 -1 18
-3 21 -3 13 -2 -67 -275 -120 -411 -21 -53 -34 -82 -97 -215 -43 -90 -186
-328 -214 -355 -3 -3 -30 -36 -60 -75 -156 -200 -363 -392 -575 -532 -184
-121 -308 -183 -540 -269 -56 -20 -261 -73 -312 -80 -27 -3 -51 -8 -54 -10
-28 -16 -424 -25 -544 -12 -297 33 -615 138 -835 276 -87 55 -135 86 -140 93
-3 3 -32 25 -65 49 -141 103 -333 319 -447 503 -117 188 -252 523 -292 727
-48 248 -62 347 -73 513 -12 197 -6 571 11 727 3 19 7 75 11 125 4 49 9 99 10
110 2 11 6 47 10 80 3 33 10 89 15 125 5 36 11 90 15 120 3 30 10 80 15 110 5
30 12 75 15 100 9 64 35 213 38 216 1 1 49 5 107 8 238 16 402 44 705 121 485
124 835 299 1079 538 322 316 438 673 352 1075 -3 13 -14 48 -26 78 -136 365
-481 575 -873 531 -569 -64 -1046 -602 -1349 -1522 -46 -140 -138 -490 -152
-579 -4 -22 -8 -41 -9 -42 -2 -2 -104 12 -155 21 -338 59 -621 238 -781 493
-85 135 -154 317 -175 462 -2 19 -8 57 -12 83 -3 27 -7 94 -7 150 -1 333 82
654 273 1062 91 193 103 217 189 375 273 501 564 900 916 1255 230 233 369
352 599 514 178 126 483 297 648 365 l38 15 11 -42 c23 -92 109 -339 162 -470
316 -775 725 -1223 1253 -1372 119 -33 206 -44 339 -40 303 8 558 132 741 360
46 58 114 161 114 173 0 5 11 32 25 60 51 106 77 234 81 392 3 165 -9 252 -56
392 -145 431 -496 753 -985 903 -61 18 -139 38 -173 44 -34 6 -74 13 -89 16
-149 27 -496 27 -673 -1 -162 -25 -518 -113 -601 -148 -20 -9 -28 20 -63 229
-32 191 -39 265 -39 395 0 103 11 427 18 525 11 153 17 224 20 260 2 22 7 69
10 105 4 36 8 79 10 95 2 17 7 57 10 90 4 33 8 71 10 85 2 14 6 48 10 75 8 67
14 108 25 185 18 121 20 135 24 160 3 14 12 66 21 115 24 144 52 285 61 316 3
12 27 15 137 17 200 3 518 28 587 47 8 2 37 7 63 10 27 3 67 9 90 15 23 5 53
11 67 14 427 82 929 312 1255 575 441 357 738 859 800 1356 3 28 8 66 10 85 7
52 7 245 0 325 -57 667 -536 1278 -1168 1489 -181 61 -336 87 -537 91 -272 5
-565 -56 -780 -164 -30 -15 -82 -38 -115 -51 -107 -43 -270 -139 -365 -216
-59 -47 -203 -195 -251 -259 -133 -173 -253 -443 -284 -638 -3 -17 -10 -57
-15 -87 -8 -52 -6 -338 4 -406 26 -192 120 -437 234 -614 82 -126 250 -305
360 -381 l22 -16 -44 -144 c-73 -237 -172 -605 -201 -744 -3 -11 -8 -33 -12
-50 -4 -16 -7 -34 -8 -40 0 -5 -5 -9 -11 -8 -5 1 -59 4 -119 7 -212 10 -406
32 -415 46 -4 6 -13 44 -20 83 -14 83 -52 273 -105 531 -41 197 -140 474 -222
619 -18 33 -33 61 -33 63 0 16 -140 194 -200 255 -377 379 -918 414 -1233 80
-237 -251 -276 -624 -101 -968 120 -237 309 -414 589 -553 257 -128 571 -211
997 -265 26 -3 69 -9 95 -14 26 -5 51 -7 55 -5 4 3 11 -3 16 -13 10 -17 16
-51 35 -198 3 -22 9 -65 12 -95 3 -30 9 -73 12 -95 7 -51 6 -348 -1 -372 -3
-10 -8 -45 -11 -77 -14 -137 -59 -294 -122 -426 -177 -370 -526 -586 -949
-588 -65 0 -139 3 -164 8 -25 5 -63 11 -86 14 -53 8 -180 49 -235 75 -23 12
-46 21 -51 21 -14 0 -173 98 -245 152 -70 52 -145 120 -210 191 -46 50 -160
202 -179 240 -9 17 -20 34 -23 37 -9 7 -86 167 -111 230 -70 173 -108 339
-139 595 -9 71 -7 416 3 490 3 22 7 58 10 80 3 22 8 60 11 85 33 260 159 687
316 1068 33 78 63 150 69 160 5 9 36 75 70 146 223 475 540 951 875 1315 376
408 788 721 1255 951 58 28 116 57 130 65 43 22 321 137 400 164 41 15 80 29
85 33 32 19 479 153 755 226 114 31 616 149 705 166 11 3 130 30 265 61 135
31 252 58 260 60 8 2 62 14 120 28 58 14 116 28 130 31 33 6 224 56 385 101
278 76 619 193 867 295 123 52 454 212 558 271 120 68 241 142 355 218 66 43
125 80 130 80 6 1 43 -26 83 -59z m2190 -1051 c430 -225 681 -448 837 -742 31
-59 54 -107 51 -107 -4 0 0 -12 7 -27 13 -25 19 -48 43 -153 14 -62 13 -247
-2 -320 -68 -323 -327 -547 -619 -534 -327 14 -595 294 -669 699 -34 184 -23
449 29 695 9 41 18 91 21 110 3 19 29 123 56 230 28 107 52 205 55 217 6 27
10 26 191 -68z m2221 -55 c61 -51 106 -161 126 -309 3 -22 8 -51 10 -65 3 -14
7 -59 10 -100 3 -41 7 -102 10 -135 27 -282 17 -872 -21 -1220 -2 -16 -5 -58
-8 -93 -7 -72 -13 -124 -26 -207 -5 -33 -12 -85 -15 -115 -3 -30 -12 -91 -20
-135 -8 -44 -16 -96 -19 -115 -9 -60 -51 -292 -61 -336 -3 -12 -7 -36 -10 -55
-3 -19 -28 -133 -56 -254 -27 -121 -52 -231 -55 -245 -21 -102 -171 -667 -229
-865 -89 -302 -164 -552 -207 -690 -27 -88 -57 -182 -65 -210 -8 -27 -44 -144
-80 -260 -36 -115 -69 -223 -73 -240 -5 -16 -28 -97 -53 -180 -25 -82 -72
-239 -104 -347 -32 -109 -62 -198 -66 -198 -5 0 -6 3 -3 8 2 4 7 50 11 102 4
52 8 111 10 130 2 19 6 71 10 115 3 44 8 100 10 125 9 91 22 259 30 370 3 41
7 91 10 110 3 19 7 71 10 115 4 44 8 100 10 125 2 25 7 77 10 116 3 40 7 89 9
110 2 22 7 77 11 124 3 47 8 101 10 120 2 19 7 73 10 120 3 47 8 101 10 120 2
19 7 73 10 120 4 47 8 101 10 120 2 19 6 73 10 120 3 47 8 101 10 120 2 19 6
76 10 125 3 50 8 106 10 125 3 19 7 64 10 100 3 36 7 85 9 110 7 60 18 185 22
235 4 66 14 178 19 220 2 22 7 76 10 120 4 44 8 91 10 105 4 27 14 114 19 170
8 85 18 177 21 200 2 14 7 50 10 80 7 58 42 337 51 405 3 22 7 42 9 45 1 3 6
30 9 60 4 30 8 66 11 80 2 14 6 43 10 65 5 34 20 127 40 240 32 181 83 434
111 553 19 81 37 154 39 162 58 250 157 574 207 676 36 74 92 134 124 134 13
0 36 -12 53 -26z m-4287 -38 c20 -22 47 -78 54 -111 14 -61 33 -168 38 -220
27 -259 28 -991 1 -1230 -2 -22 -7 -73 -10 -113 -6 -83 -10 -118 -31 -292 -17
-148 -22 -184 -35 -270 -13 -81 -16 -103 -24 -160 -4 -25 -13 -76 -20 -115 -8
-38 -19 -99 -26 -135 -14 -80 -16 -92 -29 -155 -14 -69 -29 -146 -34 -170 -2
-11 -9 -38 -14 -60 -6 -22 -13 -53 -15 -70 -4 -25 -14 -69 -53 -225 -2 -8 -14
-60 -28 -115 -86 -353 -250 -925 -371 -1295 -24 -74 -72 -220 -106 -325 -34
-104 -108 -329 -166 -500 -58 -170 -109 -325 -114 -342 -6 -18 -12 -33 -15
-33 -5 0 1 135 11 265 2 22 6 85 10 140 3 55 8 120 10 145 2 25 7 83 10 130 3
47 8 105 10 130 7 63 13 133 20 220 3 41 8 98 11 125 8 83 13 137 19 195 3 30
7 78 11 105 10 94 13 120 19 185 3 36 8 81 10 100 3 19 7 60 10 90 3 30 7 71
10 90 2 19 11 94 20 165 9 72 18 146 20 165 7 49 12 95 20 165 4 33 9 67 10
75 2 9 6 43 10 75 4 33 9 69 11 80 4 20 5 28 28 200 20 146 25 184 31 220 3
17 7 48 10 70 4 22 15 92 25 155 10 63 21 135 25 160 3 25 8 56 10 70 3 14 7
39 9 55 25 155 118 692 151 870 21 113 45 245 49 270 3 17 35 176 71 355 36
179 67 334 69 345 73 369 109 482 176 553 21 22 23 23 48 6 15 -10 35 -27 44
-38z m-3157 -851 c50 -7 128 -22 175 -33 672 -161 1171 -793 1173 -1487 1
-360 -97 -684 -302 -995 -63 -96 -64 -96 -146 -194 -83 -99 -233 -245 -299
-291 -16 -11 -36 -27 -45 -36 -39 -40 -411 -269 -436 -269 -2 0 -41 -18 -87
-39 -121 -57 -419 -155 -564 -186 -10 -2 -50 -10 -89 -18 -38 -9 -90 -18 -115
-21 -25 -3 -54 -8 -65 -10 -11 -2 -42 -6 -70 -10 -48 -6 -73 -8 -210 -20 -33
-3 -127 -8 -209 -11 l-148 -5 7 27 c4 16 8 35 10 43 22 105 90 365 148 562 57
198 75 248 89 248 9 0 19 -4 23 -9 8 -14 199 -86 280 -106 403 -100 788 -5
1047 259 60 60 145 179 164 226 3 8 14 35 24 60 40 98 53 173 54 295 0 122 -8
174 -47 275 -89 233 -291 402 -530 444 -120 21 -286 -4 -413 -64 -232 -108
-411 -315 -556 -645 -36 -80 -135 -343 -153 -402 -3 -13 -11 -23 -17 -23 -6 0
-56 46 -112 103 -191 192 -307 409 -362 677 -19 92 -25 340 -11 440 48 340
239 657 521 867 169 126 531 287 741 328 170 34 376 42 530 20z m12085 -458
c14 -3 59 -11 100 -17 177 -28 359 -80 575 -165 123 -48 453 -207 560 -269 33
-19 72 -41 86 -48 87 -43 299 -164 296 -170 -3 -10 -214 -112 -336 -163 -102
-42 -387 -139 -536 -184 -72 -21 -490 -127 -535 -135 -14 -2 -68 -14 -120 -25
-445 -96 -760 -67 -990 89 -167 114 -264 280 -263 450 1 192 81 329 288 488
28 22 169 83 234 103 142 42 263 57 446 53 94 -1 181 -5 195 -7z m-12245
-1041 c179 -47 329 -209 371 -398 3 -13 6 -57 8 -98 11 -291 -186 -558 -491
-665 -247 -86 -539 -58 -803 75 -56 28 -59 31 -50 57 100 304 189 516 281 667
112 186 287 325 456 365 58 14 172 12 228 -3z m16830 -317 c188 -49 308 -235
291 -452 -6 -80 -31 -169 -68 -241 -62 -123 -202 -270 -350 -369 -125 -83
-407 -224 -558 -279 -30 -11 -68 -26 -85 -33 -23 -10 -183 -63 -302 -100 -13
-4 -11 2 77 230 23 61 70 189 105 285 107 298 164 439 213 535 89 170 207 302
337 374 99 54 243 76 340 50z m-19997 -83 c240 -38 481 -231 638 -511 91 -161
185 -435 228 -665 3 -14 12 -61 20 -105 9 -44 18 -91 21 -105 4 -23 18 -91 30
-150 3 -14 8 -46 12 -73 5 -38 3 -47 -8 -43 -8 3 -32 7 -54 10 -671 86 -1054
227 -1309 483 -167 168 -253 351 -261 558 -15 396 288 663 683 601z m13382
-2268 c8 -3 29 -8 45 -13 53 -14 126 -55 170 -96 85 -79 124 -226 101 -383
-13 -84 -17 -101 -51 -191 -106 -284 -407 -736 -735 -1105 -41 -47 -79 -90
-85 -96 -29 -33 -234 -240 -307 -309 -135 -129 -182 -171 -348 -310 -479 -403
-1300 -942 -1975 -1296 -154 -81 -578 -289 -589 -289 -5 0 30 88 75 187 93
205 121 263 201 419 126 249 353 650 410 724 11 14 45 66 76 115 67 106 196
294 301 438 102 140 214 291 221 297 3 3 40 49 83 102 303 380 705 800 1067
1113 63 55 117 102 120 105 3 3 39 32 80 65 41 33 77 63 80 66 14 16 264 202
325 241 255 165 434 228 630 223 50 -2 97 -5 105 -7z m4600 -273 c128 -12 213
-25 219 -31 4 -4 -18 -62 -62 -164 -10 -25 -23 -54 -27 -65 -4 -11 -15 -36
-23 -55 -8 -19 -65 -150 -125 -290 -61 -140 -127 -291 -147 -335 -20 -44 -46
-100 -57 -125 -128 -285 -311 -599 -473 -813 -118 -156 -126 -166 -255 -297
-321 -324 -673 -517 -1050 -575 -99 -16 -313 -18 -385 -4 -27 5 -62 12 -77 14
-64 12 -198 60 -273 99 -196 102 -349 260 -433 447 -16 35 -29 67 -30 72 -1 4
-8 31 -17 60 -30 106 -37 257 -18 392 53 370 298 716 694 983 42 28 94 61 115
73 45 25 309 157 339 169 11 4 36 15 55 23 103 44 244 96 405 149 165 54 221
72 415 129 62 18 333 82 395 94 36 6 205 32 255 39 19 3 78 8 130 12 52 3 96
7 97 8 6 5 265 -2 333 -9z m-15115 -2049 c234 -21 487 -100 670 -208 460 -272
676 -757 538 -1213 -55 -184 -190 -351 -365 -452 -123 -72 -361 -116 -492 -92
-22 4 -57 9 -76 12 -124 16 -340 112 -471 209 -235 174 -461 467 -617 798
-108 229 -176 400 -242 609 -42 132 -49 165 -39 172 31 20 307 99 399 114 19
3 54 10 78 16 23 5 59 12 80 15 20 3 48 7 62 10 14 2 72 7 130 10 58 4 106 7
107 8 4 4 177 -3 238 -8z m12628 -2280 c235 -57 443 -192 648 -422 153 -172
362 -531 474 -814 84 -211 164 -486 201 -685 9 -49 18 -99 20 -110 2 -11 6
-31 8 -45 3 -14 8 -46 11 -72 10 -94 16 -143 21 -168 2 -14 6 -68 10 -120 3
-52 7 -105 9 -117 2 -13 2 -23 0 -23 -7 0 -256 122 -325 160 -41 23 -113 62
-160 87 -154 84 -482 284 -650 398 -138 93 -434 310 -476 349 -7 6 -22 19 -35
30 -111 88 -277 246 -350 332 -107 125 -208 324 -235 459 -14 70 -14 78 -15
156 -1 163 46 299 146 417 68 80 228 169 350 195 88 18 256 15 348 -7z m-4858
-30 c55 -4 111 -9 125 -11 14 -3 41 -7 60 -9 85 -11 133 -18 148 -21 10 -2 51
-11 92 -20 382 -80 852 -311 1126 -551 12 -11 41 -35 65 -56 35 -29 199 -191
269 -267 192 -206 462 -599 720 -1046 217 -375 350 -627 803 -1525 304 -603
375 -741 541 -1052 25 -49 43 -88 39 -89 -5 0 -15 -2 -23 -4 -8 -1 -35 -6 -60
-10 -25 -3 -56 -8 -70 -10 -43 -7 -372 -53 -425 -60 -27 -3 -84 -10 -125 -15
-99 -12 -160 -18 -245 -25 -38 -3 -90 -8 -115 -10 -304 -25 -755 -25 -1000 -1
-109 11 -207 24 -240 31 -8 2 -18 4 -21 4 -4 1 -7 31 -8 67 0 37 -3 87 -6 113
-3 25 -8 66 -11 91 -55 516 -267 1162 -506 1543 -196 313 -449 536 -725 636
-281 103 -576 87 -807 -43 -265 -150 -405 -396 -405 -712 0 -307 147 -613 438
-913 50 -51 91 -95 91 -97 0 -1 -15 2 -32 7 -53 17 -275 19 -353 4 -100 -19
-205 -56 -205 -71 0 -7 4 -23 10 -36 5 -13 46 -120 91 -238 44 -118 87 -229
94 -247 l14 -32 43 13 c111 33 262 -10 329 -95 141 -178 55 -437 -161 -484
-273 -59 -559 180 -700 588 -51 147 -126 474 -156 680 -2 15 -6 39 -8 55 -11
74 -36 274 -41 327 -3 33 -7 80 -10 105 -24 247 -24 848 0 1035 2 17 7 72 10
122 3 51 8 108 10 125 2 18 6 76 10 128 4 52 8 106 10 120 2 14 7 63 10 110 3
47 7 105 10 130 3 25 7 74 10 110 3 36 7 90 10 120 6 55 11 119 20 240 9 126
16 205 20 250 3 25 7 74 10 110 6 72 15 187 20 240 2 19 6 73 10 120 3 47 8
101 10 120 2 19 7 76 10 125 4 50 10 93 13 96 11 10 212 86 272 103 30 8 91
22 135 31 44 9 89 19 100 21 11 2 40 6 65 9 25 3 61 7 80 10 19 3 78 8 130 11
52 3 96 7 97 8 4 3 196 -2 288 -8z m-5810 -386 c3 -52 8 -113 10 -135 5 -43
12 -115 20 -197 3 -29 8 -73 10 -98 3 -25 7 -72 10 -105 4 -55 8 -87 21 -212
2 -23 6 -57 9 -75 2 -18 7 -54 10 -80 3 -27 7 -69 10 -95 3 -27 7 -61 10 -78
2 -16 7 -52 10 -80 6 -50 21 -168 29 -235 4 -30 24 -165 41 -280 3 -19 8 -51
11 -70 29 -203 100 -497 168 -700 135 -405 312 -706 561 -955 200 -200 392
-325 636 -413 84 -30 219 -66 294 -77 71 -11 329 -14 379 -4 26 5 62 10 79 13
63 7 196 46 283 83 131 54 339 182 420 258 131 122 203 200 286 310 169 224
325 556 424 897 41 144 53 170 47 102 -11 -135 -2 -771 12 -846 2 -10 7 -58
10 -107 3 -49 8 -98 10 -109 2 -12 6 -47 10 -79 3 -33 8 -70 10 -84 2 -13 7
-46 10 -74 15 -118 21 -156 81 -473 20 -106 100 -395 137 -499 165 -454 462
-788 824 -928 111 -43 131 -49 209 -60 21 -4 48 -9 58 -12 22 -6 244 -5 254 1
4 2 30 7 57 10 73 10 210 58 285 101 438 247 605 785 383 1229 l-35 69 44 -25
c229 -135 556 -266 881 -353 106 -29 115 -31 199 -47 l58 -12 -5 -85 c-5 -79
-22 -238 -31 -286 -2 -11 -7 -36 -10 -55 -21 -124 -95 -365 -146 -480 -133
-299 -300 -532 -588 -820 -132 -133 -396 -373 -492 -448 -15 -12 -33 0 -147
96 -222 186 -461 345 -805 532 -218 119 -622 317 -778 381 -85 35 -109 49
-116 69 -49 133 -75 190 -126 280 -232 409 -644 746 -1116 914 -41 15 -82 29
-90 33 -8 3 -19 7 -25 9 -5 2 -55 16 -111 33 -55 16 -114 32 -130 35 -16 3
-83 16 -149 30 -66 13 -145 27 -175 31 -30 3 -62 8 -70 10 -8 2 -47 7 -85 10
-39 3 -113 10 -165 14 -89 8 -867 6 -975 -3 -27 -2 -120 -7 -205 -11 -85 -4
-177 -9 -205 -10 -218 -13 -652 -22 -660 -13 -3 3 -1 27 4 54 5 27 12 81 16
119 3 39 8 77 10 85 7 28 18 254 18 390 1 464 -83 856 -255 1180 -46 87 -128
219 -153 246 -5 7 -26 31 -45 55 -19 23 -58 66 -86 95 l-52 52 33 94 c54 151
240 712 284 853 22 72 55 182 75 245 19 63 60 205 90 315 31 110 64 229 75
265 23 80 104 310 108 307 1 -2 5 -45 8 -97z m-3055 -394 c439 -67 649 -569
429 -1023 -195 -403 -620 -669 -1344 -838 -98 -23 -106 -25 -145 -31 -19 -3
-53 -9 -75 -14 -22 -5 -62 -12 -90 -16 -27 -3 -59 -8 -70 -10 -11 -2 -67 -7
-124 -11 l-103 -6 7 34 c190 919 582 1611 1040 1833 170 82 313 107 475 82z
m1635 -1428 c39 -5 74 -13 78 -17 7 -7 -36 -143 -68 -216 -7 -16 -34 -86 -60
-155 -53 -141 -237 -602 -265 -664 -10 -23 -40 -90 -65 -151 -46 -107 -265
-597 -271 -603 -6 -7 -100 102 -155 178 -89 125 -186 331 -206 439 -2 13 -10
53 -17 88 -19 88 -14 317 8 406 82 335 297 573 601 666 38 12 95 24 125 28 30
3 57 7 60 10 7 7 160 1 235 -9z m7467 -239 c187 -50 323 -128 479 -276 263
-251 431 -582 629 -1238 10 -34 67 -294 75 -340 18 -115 33 -246 39 -354 l3
-53 -41 5 c-40 6 -267 65 -336 88 -72 24 -286 101 -320 116 -120 52 -310 149
-400 203 -90 54 -295 192 -310 209 -3 3 -27 24 -55 45 -94 74 -312 301 -386
401 -158 213 -229 406 -223 611 3 117 22 194 70 284 95 175 289 300 494 317
36 3 66 6 67 7 6 5 178 -15 215 -25z m-6652 -305 c52 -74 147 -257 175 -334
59 -162 116 -397 129 -530 25 -252 25 -604 1 -760 -2 -14 -6 -52 -10 -85 -6
-58 -14 -114 -20 -145 -2 -8 -4 -21 -4 -28 -1 -9 -16 -11 -53 -8 -29 3 -91 8
-138 11 -139 11 -355 39 -389 51 -8 2 -30 7 -50 10 -137 20 -536 152 -555 183
-3 4 12 41 32 82 86 171 330 714 418 927 19 48 41 101 49 117 17 39 179 449
231 583 l39 104 48 -53 c26 -30 70 -86 97 -125z m13106 -205 c36 -16 247 -111
384 -171 25 -11 63 -29 85 -38 22 -10 102 -48 179 -84 76 -36 140 -66 143 -66
6 0 431 -213 478 -240 22 -13 58 -33 80 -45 132 -72 173 -96 290 -169 72 -44
150 -94 175 -111 25 -17 77 -53 115 -80 598 -416 1067 -992 1304 -1600 23 -60
49 -126 56 -145 17 -43 85 -274 92 -309 2 -14 8 -45 14 -69 5 -23 12 -59 15
-78 3 -20 7 -46 10 -58 18 -93 23 -359 10 -493 -10 -102 -60 -301 -102 -407
-124 -309 -345 -543 -649 -687 -403 -192 -846 -215 -1390 -74 -124 32 -403
125 -435 145 -13 8 -8 22 27 94 31 63 39 87 30 94 -7 5 -70 39 -142 77 -300
157 -602 349 -855 543 -68 53 -131 103 -140 112 -8 8 -29 26 -45 38 -76 60
-185 161 -356 332 -208 207 -352 370 -523 590 -36 47 -70 90 -76 97 -99 118
-509 739 -623 946 -15 26 -34 59 -43 72 -18 28 -32 23 166 50 63 9 126 18 140
20 14 2 50 7 80 10 30 3 66 8 80 10 39 6 162 19 300 31 41 4 89 8 105 9 164
16 685 26 790 15 47 -5 50 -7 63 -45 83 -233 202 -498 334 -745 176 -330 542
-918 631 -1015 15 -16 42 -48 59 -70 48 -61 169 -165 255 -217 232 -144 487
-166 705 -63 194 92 346 314 384 558 15 104 6 269 -23 382 -8 33 -17 68 -18
77 -2 10 -22 60 -44 111 -233 547 -763 929 -1541 1111 -58 13 -118 27 -135 29
-16 3 -68 12 -115 20 -47 9 -128 21 -180 27 -158 19 -175 21 -182 28 -9 9 -73
258 -82 317 -4 22 -11 67 -16 100 -14 92 -39 302 -45 375 -2 36 -7 88 -10 115
-4 47 -7 89 -21 395 -3 69 -7 150 -8 180 -2 30 -1 58 1 62 2 4 43 -11 91 -33
48 -22 106 -49 128 -60z m199 -1680 c112 -17 120 -18 227 -39 189 -38 357 -86
538 -157 151 -59 359 -163 368 -185 2 -4 9 -8 14 -8 23 0 207 -147 293 -234
250 -252 378 -531 376 -817 0 -47 -4 -97 -9 -110 -5 -13 -10 -27 -10 -32 -4
-73 -71 -198 -146 -272 -122 -121 -283 -162 -452 -116 -156 42 -294 136 -415
282 -24 29 -52 62 -62 74 -69 76 -435 670 -579 940 -123 230 -308 637 -308
679 0 18 14 17 165 -5z m-9735 -1273 c115 -17 207 -31 265 -41 224 -40 771
-209 772 -239 1 -13 12 -74 18 -96 17 -66 24 -320 12 -430 -9 -81 -34 -217
-52 -280 -8 -30 -17 -62 -19 -71 -37 -149 -148 -377 -284 -584 -75 -113 -74
-112 -108 -68 -185 244 -415 434 -667 553 -87 41 -234 93 -294 104 -263 49
-475 36 -683 -40 -389 -143 -644 -489 -643 -874 0 -143 19 -229 79 -356 35
-75 102 -173 149 -219 87 -86 218 -171 325 -212 138 -51 215 -65 375 -68 419
-6 826 195 1251 616 129 128 112 131 182 -32 96 -225 149 -435 179 -704 16
-141 9 -571 -11 -685 -3 -14 -7 -41 -10 -60 -3 -19 -10 -50 -15 -68 -5 -18
-10 -36 -10 -40 -2 -17 -34 -120 -48 -152 -39 -92 -57 -128 -97 -189 -124
-189 -345 -329 -601 -382 -69 -14 -284 -18 -365 -5 -545 81 -1024 483 -1482
1246 -146 243 -275 513 -351 735 -39 111 -83 263 -92 313 -3 18 -12 63 -19
100 -67 327 -48 702 50 1022 26 84 36 109 99 246 33 70 135 229 191 295 105
126 279 275 429 369 252 157 600 271 905 296 41 4 77 8 79 10 6 5 443 -4 491
-10z m-500 -1330 c78 -10 228 -52 302 -84 92 -39 222 -114 303 -175 134 -100
312 -290 389 -415 15 -25 -305 -327 -459 -433 -27 -19 -52 -36 -55 -39 -13
-14 -114 -73 -196 -114 -317 -159 -650 -175 -914 -43 -109 54 -238 179 -287
278 -123 249 -76 544 120 755 147 158 323 247 537 270 30 4 56 7 58 9 5 4 148
-2 202 -9z m3554 -170 c17 -19 58 -63 91 -98 88 -94 227 -263 357 -434 l47
-61 -26 -24 c-35 -33 -141 -171 -188 -244 -125 -196 -239 -513 -261 -728 -3
-29 -7 -58 -10 -66 -23 -67 -22 -573 1 -690 2 -13 7 -49 10 -80 4 -31 8 -63
10 -71 2 -8 7 -37 11 -65 3 -27 8 -53 10 -56 2 -3 6 -21 9 -40 26 -146 113
-366 200 -501 51 -79 206 -240 270 -280 120 -75 226 -118 335 -134 124 -18
291 4 390 52 27 13 53 24 56 24 4 0 35 20 70 45 357 255 471 728 300 1241 -80
238 -192 446 -535 992 -80 128 -150 240 -156 250 -5 9 -59 90 -119 180 -125
186 -125 159 4 236 80 48 179 89 258 107 26 6 56 13 67 16 52 13 275 11 355
-3 496 -88 908 -478 1182 -1119 140 -327 303 -920 333 -1215 4 -36 8 -67 10
-70 16 -27 25 -465 13 -615 -56 -695 -416 -1271 -949 -1519 -193 -89 -343
-120 -579 -121 -206 0 -280 8 -435 46 -159 40 -270 82 -447 169 -144 72 -363
215 -497 325 -117 96 -197 169 -326 299 -181 181 -227 232 -325 356 -41 52
-78 100 -83 105 -32 41 -112 157 -169 247 -227 358 -399 803 -444 1153 -3 28
-8 58 -10 68 -8 42 -17 220 -17 317 0 140 20 360 38 420 2 8 7 31 10 50 10 57
24 116 35 144 5 15 12 39 15 54 6 38 77 216 117 298 69 139 175 305 256 403
20 24 44 54 52 65 71 102 590 606 623 606 5 0 23 -15 41 -34z m701 -889 c107
-164 185 -287 322 -507 64 -102 126 -202 139 -222 13 -21 24 -40 24 -42 0 -2
23 -41 50 -85 77 -124 174 -315 221 -431 169 -427 128 -814 -110 -1045 -112
-109 -228 -157 -376 -157 -282 0 -542 227 -663 577 -38 109 -61 215 -87 390
-4 22 -8 51 -11 65 -17 100 -24 427 -11 575 20 253 78 471 177 675 59 120 208
329 235 329 6 0 46 -55 90 -122z"/>
<path d="M23464 4174 c37 -19 70 -34 71 -32 2 2 -5 18 -17 36 -18 29 -24 32
-71 32 l-52 -1 69 -35z"/>
</g>
</svg>
