<?xml version="1.0" standalone="no"?>
<!DOCTYPE svg PUBLIC "-//W3C//DTD SVG 20010904//EN"
 "http://www.w3.org/TR/2001/REC-SVG-20010904/DTD/svg10.dtd">
<svg version="1.0" xmlns="http://www.w3.org/2000/svg"
 width="16.000000pt" height="16.000000pt" viewBox="0 0 16.000000 16.000000"
 preserveAspectRatio="xMidYMid meet">
<metadata>
Created by potrace 1.11, written by Peter Selinger 2001-2013
</metadata>
<g transform="translate(0.000000,16.000000) scale(0.000863,-0.000863)"
fill="#000000" stroke="none">
<path d="M10210 18515 c-165 -37 -277 -100 -402 -225 -126 -127 -211 -275
-289 -508 -38 -111 -156 -526 -166 -581 -2 -14 -13 -60 -23 -101 -27 -106 -74
-331 -104 -495 -14 -77 -28 -152 -31 -167 -3 -16 -7 -40 -10 -55 -3 -16 -8
-41 -10 -58 -5 -33 -16 -101 -20 -125 -2 -8 -8 -51 -15 -95 -11 -76 -16 -108
-25 -165 -2 -14 -16 -119 -30 -235 -14 -115 -27 -226 -30 -245 -2 -19 -7 -60
-10 -90 -3 -30 -10 -91 -15 -135 -5 -44 -12 -109 -15 -145 -3 -36 -8 -81 -10
-100 -3 -19 -7 -71 -10 -115 -3 -44 -8 -96 -10 -115 -2 -19 -7 -69 -10 -110
-4 -41 -8 -95 -10 -120 -2 -25 -7 -74 -10 -110 -3 -36 -7 -87 -10 -115 -2 -27
-9 -106 -15 -175 -6 -69 -12 -150 -15 -180 -12 -138 -15 -180 -20 -250 -3 -41
-7 -95 -10 -120 -2 -25 -7 -83 -11 -130 -3 -47 -7 -101 -9 -120 -2 -19 -6 -73
-10 -120 -4 -47 -8 -101 -10 -120 -2 -19 -7 -75 -10 -125 -4 -49 -8 -106 -10
-125 -2 -19 -6 -71 -10 -115 -3 -44 -8 -100 -10 -125 -2 -25 -7 -83 -10 -130
-4 -47 -8 -101 -10 -120 -2 -19 -7 -75 -10 -125 -4 -49 -8 -106 -10 -125 -2
-19 -6 -75 -10 -125 -3 -49 -7 -106 -10 -125 -2 -19 -7 -73 -10 -120 -4 -47
-8 -107 -11 -135 -2 -27 -6 -81 -9 -120 -3 -38 -8 -85 -10 -105 -2 -19 -7 -82
-10 -140 -4 -58 -9 -112 -10 -121 -2 -9 -6 -61 -10 -115 -3 -55 -8 -110 -10
-124 -2 -14 -7 -68 -10 -120 -4 -52 -8 -111 -10 -130 -2 -19 -6 -73 -10 -120
-3 -47 -7 -105 -10 -130 -2 -25 -7 -79 -10 -120 -3 -41 -8 -95 -10 -120 -2
-25 -7 -79 -10 -120 -3 -41 -8 -95 -10 -120 -2 -25 -7 -83 -10 -130 -3 -47 -8
-105 -10 -130 -7 -76 -16 -193 -20 -240 -1 -25 -5 -76 -9 -115 -3 -38 -8 -104
-11 -145 -3 -41 -8 -95 -10 -120 -2 -25 -7 -81 -10 -125 -3 -44 -8 -100 -10
-125 -2 -25 -7 -80 -10 -123 -5 -56 -20 -115 -52 -205 -56 -158 -293 -851
-298 -874 -2 -9 -28 -95 -59 -190 -144 -455 -242 -789 -397 -1358 -7 -25 -14
-49 -15 -55 -2 -5 -5 -20 -8 -33 -3 -12 -8 -30 -10 -40 -29 -115 -138 -457
-165 -517 -10 -22 -22 -51 -26 -65 -7 -22 -40 -91 -90 -190 -53 -103 -141
-227 -220 -310 -67 -71 -169 -157 -205 -173 -8 -4 -30 -16 -48 -27 -40 -25
-147 -69 -182 -75 -76 -15 -102 -18 -170 -18 -343 1 -673 225 -888 600 -60
104 -127 253 -166 367 -30 88 -102 359 -110 418 -3 21 -10 57 -15 80 -5 24
-19 106 -30 183 -12 77 -23 149 -25 160 -2 11 -7 49 -11 85 -4 36 -9 72 -10
81 -2 9 -6 40 -9 70 -4 30 -9 70 -11 89 -3 19 -7 60 -10 90 -3 30 -8 71 -10
90 -5 43 -23 188 -30 250 -2 25 -7 71 -10 103 -2 32 -7 77 -10 100 -2 23 -7
69 -9 102 -8 95 -16 187 -21 230 -5 40 -9 90 -20 240 -11 150 -15 200 -20 290
-3 50 -8 118 -11 153 -2 34 -6 106 -9 160 -7 168 -16 374 -20 447 -2 39 -7
207 -10 375 l-6 305 51 145 c49 140 109 313 210 605 27 77 62 178 79 225 17
47 85 243 151 435 67 193 129 373 139 400 26 69 95 268 97 280 2 6 44 129 94
275 124 358 319 957 409 1250 105 346 215 743 276 995 15 61 29 117 31 125 13
52 85 369 89 390 2 14 13 70 25 125 11 55 23 116 26 135 3 19 12 67 20 105 8
39 17 86 20 105 9 58 36 230 49 310 2 14 6 45 10 70 3 25 7 61 10 80 3 19 7
62 11 95 3 33 7 67 9 75 2 8 7 51 10 95 4 44 8 91 10 105 2 14 7 63 10 110 4
47 8 101 10 120 24 230 23 893 0 1199 -9 107 -17 186 -20 191 -2 4 -6 28 -10
54 -5 44 -28 138 -53 223 -28 90 -113 248 -172 318 -89 105 -179 177 -291 230
-102 47 -177 66 -289 70 -212 8 -383 -61 -545 -220 -145 -143 -233 -311 -296
-569 -17 -70 -81 -372 -95 -446 -6 -31 -13 -68 -20 -100 -25 -117 -134 -677
-140 -715 -1 -11 -16 -94 -33 -185 -17 -91 -33 -178 -35 -195 -3 -16 -16 -95
-30 -175 -13 -80 -27 -161 -30 -180 -3 -19 -8 -46 -11 -60 -10 -53 -14 -76
-20 -115 -23 -158 -41 -280 -49 -325 -3 -14 -7 -43 -11 -65 -3 -22 -12 -83
-20 -135 -16 -109 -23 -157 -30 -220 -3 -25 -8 -56 -10 -70 -3 -14 -7 -45 -10
-70 -3 -25 -8 -56 -10 -70 -2 -14 -7 -45 -10 -70 -3 -25 -8 -56 -10 -70 -2
-14 -6 -47 -10 -75 -3 -27 -8 -66 -10 -85 -3 -19 -7 -60 -11 -90 -3 -30 -7
-66 -9 -80 -2 -14 -6 -47 -10 -75 -3 -27 -8 -64 -10 -81 -2 -17 -7 -57 -10
-90 -4 -32 -8 -70 -10 -84 -2 -14 -7 -52 -10 -85 -3 -33 -8 -76 -10 -95 -10
-80 -21 -192 -31 -300 -3 -41 -7 -82 -9 -90 -2 -8 -6 -49 -9 -90 -4 -41 -9
-95 -11 -120 -3 -25 -7 -79 -10 -120 -7 -91 -13 -160 -20 -220 -2 -25 -7 -83
-10 -130 -7 -102 -13 -189 -20 -290 -11 -149 -23 -348 -30 -495 -3 -66 -7
-158 -10 -205 -23 -490 -25 -566 -31 -1275 -3 -392 -9 -652 -16 -670 -39 -117
-179 -517 -290 -830 -49 -137 -90 -254 -91 -260 -10 -34 -21 -66 -37 -110 -89
-236 -230 -660 -280 -840 -140 -509 -314 -1074 -440 -1430 -101 -285 -144
-405 -218 -600 -73 -191 -214 -546 -247 -620 -7 -16 -45 -106 -85 -200 -40
-93 -83 -192 -95 -220 -13 -27 -43 -95 -68 -150 -153 -342 -226 -483 -332
-646 -204 -313 -485 -471 -726 -409 -227 59 -363 248 -353 492 l3 76 -47 8
c-26 4 -51 8 -57 10 -5 1 -26 5 -45 8 -51 9 -300 54 -335 61 -16 3 -42 8 -58
10 -15 2 -31 7 -36 10 -5 3 -12 -7 -15 -22 -4 -16 -9 -39 -12 -53 -10 -45 -12
-263 -3 -325 61 -402 336 -734 716 -864 142 -48 230 -63 363 -62 332 4 644
146 910 413 252 253 418 546 792 1398 107 244 240 565 309 745 27 72 54 139
59 150 35 74 218 586 326 910 126 379 215 667 305 990 90 323 85 308 143 469
40 110 47 124 45 80 -1 -16 1 -60 5 -99 4 -38 9 -95 11 -125 3 -30 7 -73 9
-95 3 -22 7 -74 11 -115 3 -41 8 -86 10 -100 2 -14 7 -54 10 -90 9 -112 16
-182 30 -300 8 -63 17 -133 19 -155 14 -119 27 -224 31 -255 3 -19 7 -55 10
-80 3 -25 7 -54 9 -65 2 -12 8 -48 12 -80 4 -33 8 -62 9 -65 1 -3 5 -30 9 -60
4 -30 11 -77 16 -105 5 -27 11 -63 14 -80 3 -25 30 -172 41 -225 2 -8 17 -71
34 -140 99 -404 254 -747 465 -1030 84 -113 261 -292 369 -373 301 -226 638
-340 982 -332 106 3 138 6 220 20 198 33 426 136 617 277 102 75 266 239 344
344 33 44 62 81 65 84 21 18 153 256 210 378 58 127 158 403 200 554 18 64 25
46 19 -49 -10 -151 -1 -653 15 -788 2 -16 6 -73 10 -125 4 -52 9 -104 11 -115
2 -11 7 -45 10 -75 3 -30 8 -68 10 -85 3 -16 7 -48 9 -70 3 -22 7 -51 10 -65
2 -14 7 -38 9 -55 3 -16 12 -70 21 -120 9 -49 18 -103 21 -120 3 -16 9 -46 14
-65 5 -19 11 -48 14 -65 34 -190 125 -473 210 -650 115 -240 273 -445 431
-561 22 -16 42 -31 45 -34 25 -25 173 -107 260 -143 214 -89 457 -102 685 -37
317 91 566 358 644 691 27 115 23 319 -8 434 -58 211 -196 405 -373 526 -225
154 -525 199 -786 119 -112 -35 -110 -12 -25 -237 41 -109 81 -212 89 -230 8
-17 14 -33 14 -36 0 -3 9 -26 20 -51 l19 -45 45 13 c25 8 74 12 110 10 241
-12 370 -288 224 -479 -98 -127 -275 -153 -453 -65 -179 89 -314 266 -415 543
-27 74 -101 356 -113 432 -3 17 -14 80 -26 140 -11 61 -23 133 -26 160 -3 28
-8 57 -10 65 -2 8 -7 42 -10 75 -4 33 -8 71 -10 85 -2 14 -6 59 -10 100 -4 41
-8 91 -10 110 -25 216 -25 780 0 1060 1 19 6 71 9 115 4 44 8 100 11 125 4 49
12 146 20 250 3 36 7 90 10 120 8 82 14 146 20 235 3 44 7 100 10 125 3 25 7
77 10 116 3 40 7 89 10 110 2 22 6 77 10 124 4 47 8 101 10 120 2 19 6 71 10
115 3 44 8 100 10 125 2 25 6 79 10 120 5 72 11 142 20 240 2 25 7 79 10 120
4 41 9 78 13 82 7 7 205 87 232 94 105 27 182 45 215 50 22 3 42 7 45 9 3 2
28 6 55 9 28 4 66 9 85 11 172 24 511 24 675 0 17 -3 48 -7 70 -10 79 -11 169
-26 174 -29 3 -2 22 -7 41 -10 51 -8 264 -71 356 -105 155 -58 302 -129 457
-223 91 -54 261 -174 298 -210 8 -7 30 -26 49 -41 71 -57 275 -264 352 -357
44 -52 87 -104 97 -115 116 -140 354 -496 513 -770 32 -55 63 -107 68 -115 6
-8 13 -22 17 -30 4 -8 16 -31 28 -50 26 -42 56 -96 120 -215 26 -49 51 -94 55
-100 8 -11 90 -168 210 -400 40 -77 203 -399 362 -715 160 -316 315 -622 345
-680 129 -245 147 -279 186 -350 58 -109 96 -178 212 -385 16 -27 55 -95 88
-150 33 -55 65 -109 71 -120 6 -11 46 -77 89 -145 43 -69 84 -134 90 -145 22
-36 260 -389 300 -445 166 -228 389 -508 542 -680 104 -116 455 -461 573 -562
118 -102 330 -270 416 -331 40 -28 363 -240 402 -264 182 -112 591 -323 625
-323 10 0 34 39 72 118 31 64 88 184 127 266 39 81 70 149 68 151 -2 1 -59 31
-128 67 -298 157 -688 401 -845 529 -11 9 -69 56 -130 105 -60 48 -115 93
-121 99 -6 5 -44 39 -85 75 -80 70 -366 353 -439 435 -59 65 -165 188 -215
250 -22 27 -52 62 -66 79 -128 152 -426 581 -601 866 -291 472 -462 794 -1058
1985 -300 600 -397 790 -489 960 -21 39 -57 104 -78 145 -43 79 -59 108 -124
223 -23 40 -53 92 -67 117 -72 130 -225 380 -331 540 -45 69 -233 333 -241
340 -3 3 -37 43 -74 90 -210 262 -495 538 -716 693 -263 185 -509 317 -775
418 -129 50 -376 124 -447 136 -21 3 -38 8 -38 12 0 3 78 51 173 105 202 117
505 315 737 481 154 110 369 271 380 285 3 3 28 23 55 45 28 22 66 53 85 70
20 16 57 48 84 70 27 22 59 49 70 60 12 11 57 51 101 90 44 38 170 159 280
270 237 237 441 471 611 700 32 44 61 82 65 85 3 3 57 84 121 180 253 383 371
635 430 915 28 135 30 381 4 505 -94 443 -420 760 -871 846 -11 2 -31 6 -45
10 -42 10 -327 13 -367 4 -21 -5 -56 -11 -78 -13 -22 -3 -69 -13 -105 -22 -36
-9 -72 -18 -80 -20 -44 -9 -200 -73 -307 -126 -129 -64 -333 -194 -468 -298
-44 -33 -93 -71 -109 -84 -313 -239 -842 -731 -1137 -1057 -57 -63 -106 -117
-109 -120 -3 -3 -41 -48 -85 -100 -82 -98 -141 -163 -132 -145 18 37 372 1148
442 1390 13 44 42 143 65 220 109 368 293 1042 314 1152 2 10 13 58 25 106 12
49 23 102 26 119 3 17 8 34 10 38 2 3 6 17 8 31 3 13 28 139 56 278 29 140 53
266 55 280 2 15 14 87 26 161 26 162 37 237 45 310 3 30 8 62 10 70 2 8 7 44
10 80 3 36 8 76 10 90 2 14 6 54 9 90 4 36 9 90 12 120 32 340 37 1033 9 1300
-2 19 -6 69 -10 110 -9 105 -14 146 -26 215 -6 33 -13 73 -16 89 -10 63 -65
225 -104 305 -122 258 -355 450 -599 496 -68 12 -235 13 -290 0z m199 -711
c44 -37 77 -97 100 -184 26 -97 36 -178 58 -453 19 -245 7 -910 -22 -1172 -2
-22 -6 -65 -9 -95 -11 -105 -16 -145 -20 -170 -2 -14 -7 -47 -10 -75 -9 -71
-15 -115 -21 -155 -3 -19 -8 -50 -10 -69 -2 -18 -7 -40 -9 -50 -3 -9 -8 -36
-11 -61 -5 -48 -10 -75 -25 -155 -5 -27 -12 -61 -14 -75 -38 -206 -132 -632
-192 -865 -58 -228 -76 -294 -104 -395 -55 -196 -240 -829 -275 -940 -42 -131
-164 -525 -200 -645 -14 -49 -31 -103 -36 -120 -28 -93 -53 -176 -125 -417
-43 -147 -82 -268 -86 -268 -4 0 -5 8 -3 19 2 10 6 54 10 97 11 143 16 199 20
239 2 22 7 74 10 115 13 187 16 227 20 255 2 17 7 71 10 120 4 50 8 106 10
125 2 19 7 73 10 120 3 47 8 101 10 120 2 19 7 71 10 115 3 44 8 100 11 125 2
25 6 79 9 120 3 41 7 91 10 110 2 19 7 76 10 125 4 50 8 106 10 125 2 19 7 71
10 115 3 44 7 96 10 115 2 19 7 73 11 120 3 47 7 101 9 120 2 19 7 73 10 120
4 47 8 101 10 120 2 19 6 71 10 115 4 44 8 94 10 110 2 17 6 64 9 105 4 41 9
95 11 120 12 132 21 229 30 340 3 41 8 86 10 100 2 14 6 52 10 85 3 33 7 76
10 95 2 19 7 62 10 95 6 62 23 208 30 260 3 17 9 71 15 120 11 93 13 101 30
220 6 39 13 81 15 95 2 14 6 41 8 60 11 72 48 289 67 395 11 61 25 134 30 163
5 29 19 96 30 150 12 53 24 109 26 123 3 14 33 135 69 270 123 472 175 617
248 695 39 41 74 44 116 8z m-4298 -26 c35 -38 70 -127 83 -208 2 -14 7 -41
10 -60 33 -197 40 -1014 12 -1275 -3 -22 -7 -74 -11 -115 -11 -131 -15 -174
-20 -210 -7 -53 -14 -109 -20 -170 -6 -58 -37 -270 -51 -350 -2 -14 -9 -54
-14 -90 -13 -80 -18 -108 -25 -140 -3 -14 -8 -38 -10 -55 -3 -16 -7 -37 -8
-45 -2 -8 -7 -33 -11 -55 -4 -22 -18 -89 -31 -150 -13 -60 -26 -121 -29 -135
-9 -51 -79 -340 -123 -510 -24 -96 -46 -182 -48 -190 -8 -34 -96 -342 -125
-440 -17 -58 -33 -112 -35 -120 -28 -121 -515 -1603 -531 -1619 -5 -5 2 180
10 284 2 22 7 87 11 145 13 196 22 316 30 395 1 17 6 66 9 110 4 44 9 98 11
120 2 22 7 72 10 110 3 39 8 86 10 105 2 19 7 69 11 110 3 41 8 84 10 95 2 10
6 49 9 85 3 36 8 81 10 100 3 19 7 60 10 90 9 85 15 142 20 180 2 19 22 184
45 365 22 182 42 337 45 345 2 8 7 40 10 70 6 56 8 70 20 150 4 25 8 56 10 70
24 171 28 194 45 305 6 39 13 81 15 95 17 119 61 391 99 610 48 274 49 280 66
380 6 33 13 72 16 87 4 25 8 47 29 153 3 14 8 39 10 55 4 24 52 271 71 369 2
11 13 65 25 120 11 56 41 200 65 321 71 353 108 470 167 533 25 27 51 22 88
-20z m6928 -5033 c329 -87 393 -403 172 -844 -143 -283 -457 -722 -725 -1011
-153 -166 -468 -470 -579 -560 -17 -14 -38 -32 -46 -40 -20 -19 -204 -168
-291 -236 -113 -87 -462 -335 -592 -419 -272 -177 -460 -295 -603 -379 -82
-49 -175 -103 -205 -121 -118 -70 -465 -253 -657 -346 -247 -120 -277 -133
-270 -116 2 6 35 82 73 167 137 311 342 706 508 978 31 51 56 95 56 98 0 3 5
10 11 17 6 7 47 69 92 139 108 167 205 307 351 508 101 139 150 204 249 330
28 36 142 175 147 180 4 4 45 51 135 158 11 13 36 41 55 61 19 21 59 64 89 97
353 390 932 902 1286 1136 154 102 319 176 455 203 88 18 223 18 289 0z"/>
</g>
</svg>
